<svg xmlns="http://www.w3.org/2000/svg" xmlns:xlink="http://www.w3.org/1999/xlink" version="1.1" width="24pt" height="24pt" viewBox="0 0 24 24">
<path transform="matrix(1,0,0,-1,4.099976,9.350098)" d="M4.789984 6.749902C4.789984 7.108888 4.498969 7.399902 4.139984 7.399902 3.780999 7.399902 3.489984 7.108888 3.489984 6.749902V5.35989H3C1.34 5.35989 0 4.01989 0 2.35989V.699891C0 .309891 .31-.00011 .7-.00011H15.299999C15.69-.00011 16 .309891 16 .699891V2.35989C16 4.01989 14.65 5.35989 13 5.35989H12.499984V6.749902C12.499984 7.108888 12.208969 7.399902 11.849984 7.399902 11.490999 7.399902 11.199985 7.108888 11.199985 6.749902V5.35989H8.649984V6.749902C8.649984 7.108888 8.35897 7.399902 7.999985 7.399902 7.641 7.399902 7.349985 7.108888 7.349985 6.749902V5.35989H4.789984V6.749902Z" fill="#3a83f1"/>
<path transform="matrix(1,0,0,-1,4.099976,11.419922)" d="M.7 .769714H15.299999C15.679999 .769714 16 .459714 16 .069714V-5.700287C16-7.360287 14.66-8.700287 13-8.700287H3C1.34-8.700287 0-7.360287 0-5.700287V.069714C0 .459714 .31 .769714 .7 .769714ZM6.419994-5.100292C6.809994-5.100292 7.119994-4.790291 7.119994-4.400291V-3.080292C7.119994-2.690292 6.809994-2.380292 6.419994-2.380292H4.099994C3.709994-2.380292 3.399994-2.690292 3.399994-3.080292V-4.400291C3.399994-4.790291 3.709994-5.100292 4.099994-5.100292H6.419994Z" fill="#3a83f1" fill-rule="evenodd"/>
</svg>
