<svg xmlns="http://www.w3.org/2000/svg" xmlns:xlink="http://www.w3.org/1999/xlink" version="1.1" width="24pt" height="24pt" viewBox="0 0 24 24">
<path transform="matrix(1,0,0,-1,4,4.4350588)" d="M5.697415-9.939097H4.297415V-11.339097H5.697415V-9.939097Z" fill="#3a83f1"/>
<path transform="matrix(1,0,0,-1,4,21)" d="M16.390007 13.474867C17.228308 13.474867 17.228308 12.174867 16.390007 12.174867H15.000001V5.799818H16.390007C16.748991 5.799818 17.040005 5.508802 17.040005 5.149817 17.040005 4.790833 16.748991 4.499819 16.390007 4.499819H15.000001V2.999817C15.000001 1.349817 13.66-.000183 12-.000183H2.999999C1.339999-.000183 0 1.339817 0 2.999817V14.964844C0 16.624844 1.34 17.964844 3 17.964844H12.000001C13.660001 17.964844 15.000001 16.624844 15.000001 14.964844V13.474867H16.390007ZM6.866661 12.532999C7.100986 12.804958 7.070477 13.215384 6.798517 13.449708 6.526557 13.684032 6.116132 13.653523 5.881807 13.381563L4.748701 12.066468 4.062978 12.703154C3.799905 12.947414 3.38863 12.932163 3.14437 12.66909 2.90011 12.406017 2.915361 11.994743 3.178434 11.750483L4.358518 10.654789C4.487917 10.534643 4.660628 10.472312 4.836932 10.48213 5.013235 10.491949 5.177957 10.573071 5.293216 10.706842L6.866661 12.532999ZM8.418576 12.044211C8.418576 11.685227 8.709592 11.394212 9.068576 11.394212L11.349999 11.394219C11.708985 11.39422 12 11.685235 12 12.044219 12 12.403205 11.708985 12.694218 11.349999 12.694218L9.068576 12.694212C8.709592 12.694212 8.418576 12.403197 8.418576 12.044211ZM8.418576 5.92583C8.418576 5.566846 8.709592 5.27583 9.068576 5.27583L11.349999 5.275838C11.708985 5.275839 12 5.566854 12 5.925838 12 6.284823 11.708985 6.575836 11.349999 6.575836L9.068576 6.57583C8.709592 6.57583 8.418576 6.284816 8.418576 5.92583ZM4.297415 7.925844C3.579445 7.925844 2.997415 7.343814 2.997415 6.625844V5.225844C2.997415 4.507874 3.579445 3.925844 4.297415 3.925844H5.697415C6.415385 3.925844 6.997415 4.507874 6.997415 5.225844V6.625844C6.997415 7.343814 6.415385 7.925844 5.697415 7.925844H4.297415Z" fill="#3a83f1" fill-rule="evenodd"/>
</svg>
