<svg xmlns="http://www.w3.org/2000/svg" xmlns:xlink="http://www.w3.org/1999/xlink" version="1.1" width="28pt" height="28pt" viewBox="0 0 28 28">
<path transform="matrix(1,0,0,-1,3.281006,8.508789)" d="M5.791636-8.92845 4.008756-10.985693C3.734466-11.302193 3.255536-11.336409 2.939037-11.062119 2.622538-10.78783 2.58832-10.308901 2.86261-9.992401L4.950588-7.58311C5.003016-7.522615 5.062919-7.472433 5.127735-7.432747 5.398944-7.174805 5.825251-7.151864 6.145288-7.363532 7.446208-8.223947 9.005676-8.724923 10.682154-8.724923 12.431755-8.724923 14.053917-8.179291 15.38776-7.248906 15.728505-7.011229 16.200512-7.045614 16.472125-7.359978 16.49355-7.384776 16.513096-7.410579 16.530764-7.437193L18.575245-9.796296C18.849537-10.112795 18.815318-10.591724 18.49882-10.866013 18.18232-11.140303 17.70339-11.106087 17.4291-10.789587L15.733447-8.832995C14.473317-9.597591 13.026155-10.08474 11.476715-10.209686 11.477082-10.219379 11.477268-10.229118 11.477268-10.238903V-12.427977C11.477268-12.846792 11.13775-13.186312 10.718934-13.186312 10.300118-13.186312 9.960602-12.846792 9.960602-12.427977V-10.238903C9.960602-10.231014 9.960724-10.223156 9.960963-10.215324 8.449459-10.10483 7.03362-9.649808 5.791636-8.92845Z" fill="#3a83f1"/>
<path transform="matrix(1,0,0,-1,3.281006,5.366699)" d="M3.033333-16.392622C3.033333-17.230254 2.354298-17.909289 1.516667-17.909289 .679035-17.909289 0-17.230254 0-16.392622 0-15.554989 .679035-14.875956 1.516667-14.875956 2.354298-14.875956 3.033333-15.554989 3.033333-16.392622Z" fill="#3a83f1"/>
<path transform="matrix(1,0,0,-1,3.281006,5.3671877)" d="M12.235644-18.783003C12.235644-19.620635 11.556609-20.29967 10.718978-20.29967 9.881345-20.29967 9.202311-19.620635 9.202311-18.783003 9.202311-17.94537 9.881345-17.266337 10.718978-17.266337 11.556609-17.266337 12.235644-17.94537 12.235644-18.783003Z" fill="#3a83f1"/>
<path transform="matrix(1,0,0,-1,3.281006,5.366699)" d="M19.921645-17.909289C20.759278-17.909289 21.43831-17.230254 21.43831-16.392622 21.43831-15.554989 20.759278-14.875956 19.921645-14.875956 19.084012-14.875956 18.404978-15.554989 18.404978-16.392622 18.404978-17.230254 19.084012-17.909289 19.921645-17.909289Z" fill="#3a83f1"/>
<path transform="matrix(1,0,0,-1,3.281006,4.1499025)" d="M9.900704-3.919475V-2.102808H11.975703C12.477362-2.102808 12.884037-2.509483 12.884037-3.011141 12.884037-3.5128 12.477363-3.919475 11.975704-3.919475H9.900704Z" fill="#3a83f1"/>
<path transform="matrix(1,0,0,-1,3.281006,15.655273)" d="M10.718927 .00003C14.397627 .00003 17.379803 2.982204 17.379803 6.660903 17.379803 10.339602 14.397627 13.321777 10.718927 13.321777 7.040229 13.321777 4.058054 10.339602 4.058054 6.660903 4.058054 2.982204 7.040229 .00003 10.718927 .00003ZM11.975704 6.06923H9.900704V5.253343L11.934741 5.253342C12.353558 5.253342 12.693075 4.913824 12.693075 4.495008 12.693075 4.076193 12.353558 3.736675 11.934741 3.736676H9.900704V3.160897C9.900704 2.742081 9.561187 2.402564 9.142371 2.402564 8.723556 2.402564 8.384038 2.742081 8.384038 3.160897V3.736676H7.890067C7.471251 3.736676 7.131734 4.076193 7.131734 4.495009 7.131734 4.913825 7.471251 5.253343 7.890068 5.253343H8.384038V6.06923H7.899977C7.481161 6.06923 7.141644 6.408748 7.141644 6.827563 7.141644 7.246379 7.481161 7.585896 7.899977 7.585896H8.384038V9.812291C8.384038 10.428348 8.884207 10.91923 9.492371 10.91923H11.975703C13.314993 10.91923 14.400704 9.833521 14.400704 8.49423 14.400704 7.15494 13.314995 6.06923 11.975704 6.06923Z" fill="#3a83f1" fill-rule="evenodd"/>
</svg>
