<svg xmlns="http://www.w3.org/2000/svg" xmlns:xlink="http://www.w3.org/1999/xlink" version="1.1" width="24pt" height="24pt" viewBox="0 0 24 24">
<path transform="matrix(1,0,0,-1,3,9.383789)" d="M6.235412 4.599619C5.727613 5.107418 4.904309 5.107419 4.396511 4.599621L3.239598 3.361865C2.7318 2.854067 2.7318 2.030764 3.239597 1.522965L4.359482 .40308C4.635426 .127135 5.08373 .130119 5.355976 .409712L7.375019 2.483239C7.642187 2.757617 7.63927 3.195758 7.368474 3.466555L6.235412 4.599619Z" fill="#3a83f1"/>
<path transform="matrix(1,0,0,-1,3,16.605957)" d="M6.262422 6.699075C5.995254 6.424697 5.998169 5.986556 6.268967 5.715759L13.714354-1.729639C14.112022-2.127308 14.613443-2.405221 15.16143-2.531679L16.892933-2.931255C17.82924-3.147326 18.127852-2.767871 17.911782-1.831563L17.512204-.100059C17.385746 .447927 17.107836 .949347 16.710167 1.347014L9.27796 8.779235C9.002016 9.05518 8.55371 9.052196 8.281464 8.772603L6.262422 6.699075Z" fill="#3a83f1"/>
<path transform="matrix(1,0,0,-1,3,7.671875)" d="M3.640238-12.317158C4.821224-12.317161 5.541965-11.709079 6.094556-11.242865L6.126791-11.215675C6.693831-10.737665 7.093841-10.420239 7.78157-10.420239 9.053463-10.420239 9.680036-11.199035 10.149227-11.782214 10.245176-11.901471 10.334562-12.012574 10.42152-12.107136 10.664514-12.37138 11.07571-12.388605 11.339953-12.145613 11.604197-11.902618 11.621423-11.491423 11.378429-11.227179 11.34579-11.191685 11.300872-11.13295 11.242975-11.057242 10.830969-10.518495 9.761658-9.120239 7.78157-9.120239 6.594695-9.120239 5.871898-9.729947 5.317584-10.197534L5.288899-10.221725C4.720592-10.700803 4.323181-11.017159 3.640241-11.017158 2.256124-11.017155 1.652694-10.191866 1.272978-9.672544 1.235799-9.621695 1.200764-9.57378 1.167351-9.52986 .949998-9.244153 .542188-9.188743 .256482-9.406096-.029224-9.623448-.084635-10.031259 .132718-10.316965 .157622-10.3497 .186731-10.390286 .220404-10.437236 .601818-10.969034 1.568709-12.317152 3.640238-12.317158Z" fill="#3a83f1"/>
</svg>
