<svg xmlns="http://www.w3.org/2000/svg" xmlns:xlink="http://www.w3.org/1999/xlink" version="1.1" width="24pt" height="24pt" viewBox="0 0 24 24">
<path transform="matrix(1,0,0,-1,3.099976,15.723633)" d="M1.131896 6.958398C.672324 7.316878 .001569 6.991243 .001394 6.408393 .000848 4.589021 0 1.462068 0-.396602 0-2.056602 1.34-3.396603 3-3.396603H15C16.66-3.396603 18-2.056602 18-.396602 18 1.883491 18.051064 4.171447 18.024792 6.45349 18.01823 7.023438 17.366909 7.336831 16.912974 6.992119L12.340735 3.520039 14.923266 1.576949C15.210123 1.361118 15.267702 .953609 15.051871 .666751 14.83604 .379893 14.428531 .322315 14.141673 .538146L11.264606 2.702845 11.131968 2.602121C9.813144 1.600628 7.985358 1.61248 6.67963 2.630989L6.561933 2.722796 6.560559 2.72176 3.658353 .538146C3.371495 .322315 2.963986 .379893 2.748155 .666751 2.532324 .953609 2.589902 1.361118 2.87676 1.576949L5.500306 3.550899 1.131896 6.958398Z" fill="#3a83f1"/>
<path transform="matrix(1,0,0,-1,3.099976,12.730957)" d="M.72052 6.693696C.495897 6.431607 .57889 6.045805 .851057 5.833506L7.479192 .663351C8.319866 .007597 9.496659-.000032 10.345766 .644764L17.152539 5.813712C17.428648 6.023385 17.515879 6.410326 17.292023 6.675067 16.740582 7.327222 15.916578 7.740723 15 7.740723H3C2.086678 7.740723 1.270223 7.335086 .72052 6.693696Z" fill="#3a83f1"/>
</svg>
