<svg xmlns="http://www.w3.org/2000/svg" xmlns:xlink="http://www.w3.org/1999/xlink" version="1.1" width="24pt" height="24pt" viewBox="0 0 24 24">
<path transform="matrix(1,0,0,-1,2.941101,8.986328)" d="M.120675 .496098C-.047962 .301921 .090304-.000086 .347488-.000086H4.442297C4.54195-.000086 4.6351 .049399 4.690886 .131975L7.65421 4.518389C7.788809 4.717628 7.646064 4.986328 7.405621 4.986328H4.62088C4.245951 4.986328 3.889277 4.824454 3.642421 4.54226 2.683034 3.445537 .930194 1.428218 .120675 .496098Z" fill="#3a83f1"/>
<path transform="matrix(1,0,0,-1,2.941101,13.175781)" d="M.301953 2.889367C.044094 2.889367-.095461 2.58781 .07469 2.394057 2.29586-.135214 6.044962-4.372266 7.593259-6.121147 7.739826-6.286702 8.004404-6.124382 7.928076-5.916862L4.761322 2.692927C4.717914 2.810945 4.605511 2.889367 4.479764 2.889367H.301953Z" fill="#3a83f1"/>
<path transform="matrix(1,0,0,-1,2.941101,13.030762)" d="M10.351132-5.919052C10.276345-6.126718 10.542027-6.286386 10.687816-6.120665 12.186378-4.417224 15.775963-.335966 18.042548 2.248705 18.212557 2.442573 18.07312 2.744349 17.815268 2.744349H13.681914C13.555422 2.744349 13.442519 2.665007 13.39966 2.545997L10.351132-5.919052Z" fill="#3a83f1"/>
<path transform="matrix(1,0,0,-1,2.941101,8.986328)" d="M17.765894-.000084C18.023364-.000084 18.161519 .302513 17.992302 .496564 17.178978 1.429254 15.418294 3.447355 14.454823 4.544245 14.208001 4.825245 13.852114 4.986328 13.478106 4.986328H10.455415C10.209089 4.986328 10.067738 4.705883 10.214262 4.507875L13.460179 .121463C13.516752 .045012 13.606225-.000085 13.701332-.000085L17.765894-.000084Z" fill="#3a83f1"/>
<path transform="matrix(1,0,0,-1,2.941101,11.752441)" d="M11.944714 1.06438C12.015121 1.259884 11.870256 1.466028 11.66246 1.466028H6.504207C6.295549 1.466028 6.15062 1.258299 6.222648 1.062469L8.828977-6.023632C8.925661-6.286499 9.29789-6.285237 9.39279-6.021721L11.944714 1.06438Z" fill="#3a83f1"/>
<path transform="matrix(1,0,0,-1,2.941101,7.7558596)" d="M11.53525-.75045C11.6837-.948204 11.542601-1.230554 11.295327-1.230554H6.787461C6.544974-1.230554 6.402678-.957788 6.541415-.758911L8.712758 2.353641C8.829625 2.521166 9.076097 2.525457 9.198726 2.362101L11.53525-.75045Z" fill="#3a83f1"/>
</svg>
