<svg xmlns="http://www.w3.org/2000/svg" xmlns:xlink="http://www.w3.org/1999/xlink" version="1.1" width="24pt" height="24pt" viewBox="0 0 24 24">
<path transform="matrix(1,0,0,-1,3,21)" d="M0 9.000001C0 13.970563 4.029437 18 8.999999 18 13.970562 18 18 13.970563 18 9.000001 18 4.029438 13.970562 0 8.999999 0 4.029437 0 0 4.029438 0 9.000001ZM11.645167 8.52826C11.391331 8.274419 11.391333 7.862864 11.645172 7.609026 11.899014 7.355184 12.310575 7.355185 12.564415 7.60903L13.247329 8.291957C14.614164 9.658792 14.614164 11.874868 13.247329 13.241704 11.880494 14.608539 9.664416 14.608539 8.297582 13.241704L7.614658 12.558767C7.360822 12.304926 7.360825 11.893373 7.614664 11.639534 7.868506 11.385692 8.280066 11.385693 8.533906 11.639538L9.216821 12.322465C10.075974 13.181619 11.468937 13.181619 12.328091 12.322466 13.187243 11.463312 13.187243 10.070349 12.32809 9.211195L11.645167 8.52826ZM10.443095 6.40694C10.189255 6.660781 9.777697 6.660781 9.523856 6.40694L8.783192 5.666275C7.924038 4.807122 6.531075 4.807122 5.671922 5.666275 4.812769 6.525429 4.812769 7.918392 5.671922 8.777545L6.412587 9.518209C6.666427 9.772051 6.666427 10.183607 6.412587 10.437449 6.158746 10.691289 5.747189 10.69129 5.493348 10.437449L4.752683 9.696784C3.385848 8.329948 3.385848 6.113872 4.752683 4.747037 6.119518 3.380201 8.335595 3.380201 9.702431 4.747037L10.443095 5.4877C10.696936 5.741542 10.696936 6.153099 10.443095 6.40694ZM10.605712 9.680826C10.859552 9.934668 10.859552 10.346224 10.605712 10.600065 10.351871 10.853906 9.940313 10.853906 9.686473 10.600065L7.402281 8.315873C7.148441 8.062033 7.148441 7.650476 7.402282 7.396635 7.656122 7.142794 8.067679 7.142794 8.32152 7.396635L10.605712 9.680826Z" fill="#3a83f1" fill-rule="evenodd"/>
</svg>
