<svg xmlns="http://www.w3.org/2000/svg" xmlns:xlink="http://www.w3.org/1999/xlink" version="1.1" width="24pt" height="24pt" viewBox="0 0 24 24">
<path transform="matrix(1,0,0,-1,4,11)" d="M1.3 7C.58203 7 0 6.41797 0 5.7V1.3C0 .582029 .58203 0 1.3 0H5.7C6.417971 0 7 .58203 7 1.3V5.7C7 6.41797 6.41797 7 5.7 7H1.3Z" fill="#3a83f1"/>
<path transform="matrix(1,0,0,-1,4,11)" d="M1.3-2C.58203-2 0-2.58203 0-3.3V-7.700001C0-8.417971 .58203-9 1.3-9H5.7C6.417971-9 7-8.41797 7-7.7V-3.3C7-2.582029 6.41797-2 5.7-2H1.3Z" fill="#3a83f1"/>
<path transform="matrix(1,0,0,-1,4,11)" d="M9 5.7C9 6.41797 9.582029 7 10.3 7H14.7C15.41797 7 16 6.41797 16 5.7V1.3C16 .58203 15.417971 0 14.700001 0H10.3C9.58203 0 9 .582029 9 1.3V5.7Z" fill="#3a83f1"/>
<path transform="matrix(1,0,0,-1,4,11)" d="M10.3-2C9.582029-2 9-2.58203 9-3.3V-7.700001C9-8.417971 9.58203-9 10.3-9H14.700001C15.417971-9 16-8.41797 16-7.7V-3.3C16-2.582029 15.41797-2 14.7-2H10.3Z" fill="#3a83f1"/>
</svg>
