<svg xmlns="http://www.w3.org/2000/svg" xmlns:xlink="http://www.w3.org/1999/xlink" version="1.1" width="24pt" height="24pt" viewBox="0 0 24 24">
<path transform="matrix(1,0,0,-1,3,21)" d="M0 9.000001C0 13.970563 4.029437 18 8.999999 18 13.970562 18 18 13.970563 18 9.000001 18 4.029438 13.970562 0 8.999999 0 4.029437 0 0 4.029438 0 9.000001ZM3.3 10.300049C4.01797 10.300049 4.6 9.718019 4.6 9.00005 4.6 8.282079 4.01797 7.700049 3.3 7.700049 2.58203 7.700049 2 8.282079 2 9.000049 2 9.718019 2.58203 10.300049 3.3 10.300049ZM14.3 10.300049C15.01797 10.300049 15.599999 9.718019 15.599999 9.00005 15.599999 8.282079 15.01797 7.700049 14.3 7.700049 13.582029 7.700049 13 8.282079 13 9.000049 13 9.718019 13.582029 10.300049 14.3 10.300049ZM9 10.299988C9.71797 10.299988 10.3 9.717958 10.3 8.999989 10.3 8.282018 9.71797 7.699988 9 7.699988 8.28203 7.699988 7.7 8.282018 7.7 8.999988 7.7 9.717958 8.28203 10.299988 9 10.299988Z" fill="#3a83f1" fill-rule="evenodd"/>
</svg>
