<svg xmlns="http://www.w3.org/2000/svg" xmlns:xlink="http://www.w3.org/1999/xlink" version="1.1" width="24pt" height="24pt" viewBox="0 0 24 24">
<path transform="matrix(1,0,0,-1,15,18)" d="M6 3C6 1.343146 4.656854 0 3 0 1.343146 0 0 1.343146 0 3 0 4.656854 1.343146 6 3 6 4.656854 6 6 4.656854 6 3Z" fill="#3a83f1"/>
<path transform="matrix(1,0,-0,1,3,11.99707)" d="M6 3C6 1.343146 4.656854 0 3 0 1.343146 0 0 1.343146 0 3 0 4.656854 1.343146 6 3 6 4.656854 6 6 4.656854 6 3Z" fill="#3a83f1"/>
<path transform="matrix(1,0,-0,1,9,6)" d="M6 3C6 1.343146 4.656854 0 3 0 1.343146 0 0 1.343146 0 3 0 4.656854 1.343146 6 3 6 4.656854 6 6 4.656854 6 3Z" fill="#3a83f1"/>
<path transform="matrix(1,0,0,-1,5.349976,7.1723635)" d="M6.650001 .000072C7.008986 .000072 7.300001 .291087 7.300001 .650072V3.537011C7.300001 3.895996 7.008986 4.187012 6.650001 4.187012 6.291016 4.187012 6 3.895996 6 3.537011V.650072C6 .291087 6.291016 .000072 6.650001 .000072Z" fill="#3a83f1"/>
<path transform="matrix(1,0,0,-1,5.349976,10.150391)" d="M6.650001-10.861835C7.008986-10.861835 7.300001-10.570822 7.300001-10.211836V-4.346949C7.300001-3.987964 7.008986-3.696949 6.650001-3.696949 6.291016-3.696949 6-3.987964 6-4.346949V-10.211836C6-10.570822 6.291016-10.861835 6.650001-10.861835Z" fill="#3a83f1"/>
<path transform="matrix(1,0,0,-1,5.349976,10.172363)" d="M.65 .000055C1.008985 .000055 1.3 .29107 1.3 .650055V6.536994C1.3 6.895979 1.008986 7.186995 .650001 7.186995 .291015 7.186995 0 6.895979 0 6.536994V.650055C0 .29107 .291015 .000055 .65 .000055Z" fill="#3a83f1"/>
<path transform="matrix(1,0,0,-1,5.349976,10.175293)" d="M12.65 7.189911C13.008986 7.189911 13.3 6.898896 13.3 6.539911V.650097C13.3 .291112 13.008986 .000097 12.650001 .000097 12.291016 .000097 12 .291112 12 .650097V6.539911C12 6.898896 12.291015 7.189911 12.65 7.189911Z" fill="#3a83f1"/>
<path transform="matrix(1,0,0,-1,5.349976,7.147461)" d="M12.65-9.702784C13.008986-9.702784 13.3-9.993798 13.3-10.352783V-13.214794C13.3-13.57378 13.008986-13.864796 12.650001-13.864796 12.291016-13.864796 12-13.57378 12-13.214796V-10.352783C12-9.993798 12.291015-9.702784 12.65-9.702784Z" fill="#3a83f1"/>
<path transform="matrix(1,0,0,-1,5.349976,7.1503908)" d="M1.3-13.211853C1.3-13.570839 1.008985-13.861853 .65-13.861853 .291015-13.861853 0-13.570839 0-13.211853V-10.346966C0-9.987981 .291015-9.696966 .65-9.696966 1.008985-9.696966 1.3-9.987981 1.3-10.346966V-13.211853Z" fill="#3a83f1"/>
</svg>
