<svg xmlns="http://www.w3.org/2000/svg" xmlns:xlink="http://www.w3.org/1999/xlink" version="1.1" width="24pt" height="24pt" viewBox="0 0 24 24">
<path transform="matrix(1,0,0,-1,3,21)" d="M9 0C13.970563 0 18 4.029437 18 9 18 13.970563 13.970563 18 9 18 4.029437 18 0 13.970563 0 9 0 4.029437 4.029437 0 9 0ZM11.880151 13.860783 11.652405 14.727781C11.553945 15.074776 11.743419 15.438918 12.090413 15.537379 12.437408 15.635839 12.801551 15.446367 12.900012 15.099372L13.611729 12.580023C13.729604 12.186951 13.492604 11.78108 13.097389 11.699196L10.666859 11.215517C10.316271 11.130733 9.972298 11.35475 9.887514 11.705338 9.830721 11.865881 9.86318 12.020628 9.943861 12.158796 10.029585 12.305601 10.180799 12.425742 10.36725 12.467409L11.329136 12.673985C10.457153 13.227313 9.387068 13.47338 8.289021 13.291474 6.07627 12.924904 4.531447 10.947807 4.656246 8.758499 4.676676 8.400095 4.402695 8.09299 4.044291 8.072559 3.685888 8.05213 3.378783 8.326111 3.358353 8.684514 3.196167 11.529696 5.20156 14.097715 8.076554 14.573995 9.442995 14.800364 10.776015 14.515678 11.880151 13.860783ZM14.641576 9.315425C14.621144 9.673828 14.314038 9.947809 13.955635 9.927378 13.597233 9.906947 13.323252 9.599842 13.343682 9.241438 13.468485 7.052127 11.923659 5.075025 9.710907 4.708454 8.612806 4.52654 7.542842 4.772587 6.670848 5.325923L7.632782 5.532511C7.819233 5.574178 7.970448 5.694319 8.056171 5.841124 8.136852 5.979292 8.169312 6.134039 8.112518 6.294582 8.027735 6.64517 7.683762 6.869186 7.333175 6.784403L4.902643 6.300723C4.507428 6.21884 4.270429 5.812969 4.388304 5.419897L5.100021 2.900548C5.198482 2.553553 5.562624 2.364079 5.909619 2.462541 6.256614 2.561002 6.446088 2.925144 6.347628 3.272139L6.119902 4.139059C7.224 3.484247 8.557056 3.199586 9.923372 3.425934 12.798371 3.902214 14.803766 6.47024 14.641576 9.315425Z" fill="#3a83f1" fill-rule="evenodd"/>
</svg>
