<svg xmlns="http://www.w3.org/2000/svg" xmlns:xlink="http://www.w3.org/1999/xlink" version="1.1" width="24pt" height="24pt" viewBox="0 0 24 24">
<path transform="matrix(1,0,0,-1,3,21.699219)" d="M.000005 13.925446C.000003 14.717257 .702465 15.318419 1.492536 15.265956 4.716125 15.051901 6.67501 15.82336 8.642561 16.598233 10.814752 17.453698 12.997506 18.313323 16.904274 17.855593 17.535449 17.781643 18 17.232863 18 16.597373V7.247095C18 6.439342 17.269293 5.83224 16.465598 5.913103 12.906088 6.271241 10.819046 5.455289 8.771457 4.654761 6.673841 3.834676 4.617629 3.030777 1.062184 3.521914 .445814 3.607057 0 4.148295 0 4.770518L.000005 13.925446ZM12.133015 10.677443C12.133015 8.963779 10.743816 7.574581 9.030153 7.574581 7.31649 7.574581 5.927291 8.963779 5.927291 10.677443 5.927291 12.391106 7.31649 13.780304 9.030153 13.780304 10.743816 13.780304 12.133015 12.391106 12.133015 10.677443ZM15.964239 14.707611C15.964239 15.066596 15.673224 15.357611 15.31424 15.357611 14.955255 15.357611 14.66424 15.066596 14.66424 14.707611V9.325588C14.66424 8.966603 14.955255 8.675588 15.31424 8.675589 15.673224 8.675589 15.96424 8.966603 15.96424 9.325588L15.964239 14.707611ZM2.681839 12.666601C3.040824 12.666601 3.331839 12.375587 3.331839 12.016602V6.634579C3.331839 6.275594 3.040824 5.984579 2.681839 5.984579 2.322854 5.984578 2.031839 6.275594 2.031839 6.634579V12.016602C2.031839 12.375587 2.322854 12.666601 2.681839 12.666601ZM17.460772 4.468611C13.219101 5.089464 10.837246 4.184136 8.603144 3.310925L8.533971 3.283883C6.397415 2.448568 4.40529 1.66972 .795574 2.242663 .441027 2.298938 .107991 2.05714 .051716 1.702595-.004559 1.348047 .237239 1.015011 .591786 .958736 4.549972 .330482 6.807434 1.213058 9.008821 2.07371L9.076392 2.100125C11.228174 2.941161 13.359129 3.755116 17.272498 3.182317 17.627697 3.130326 17.95779 3.376126 18.00978 3.731327 18.061772 4.086527 17.815972 4.41662 17.460772 4.468611Z" fill="#3a83f1" fill-rule="evenodd"/>
</svg>
